# AST/ASF file generated using VICON BodyLanguage
# -----------------------------------------------
:version 1.10
:name VICON
:units
  mass 1.0
  length 0.45
  angle deg
:documentation
   .ast/.asf automatically generated from VICON data using
   VICON BodyBuilder and BodyLanguage model FoxedUp or BRILLIANT.MOD
:root
   order TX TY TZ RX RY RZ
   axis XYZ
   position 0 0 0  
   orientation 0 0 0 
:bonedata
  begin
     id 1 
     name lhipjoint
     direction 0.576517 -0.752066 0.319413 
     length 2.45433 
     axis 0 0 0  XYZ
  end
  begin
     id 2 
     name lfemur
     direction 0.34202 -0.939693 0  
     length 7.54459  
     axis 0 0 20  XYZ
    dof rx ry rz
    limits (-160.0 20.0)
           (-70.0 70.0)
           (-60.0 70.0)
  end
  begin
     id 3 
     name ltibia
     direction 0.34202 -0.939693 0   
     length 7.73986   
     axis 0 0 20   XYZ
    dof rx
    limits (-10.0 170.0)
  end
  begin
     id 4 
     name lfoot
     direction 0.090693 -0.249177 0.964202   
     length 2.28437   
     axis -90 7.62852e-016 20   XYZ
    dof rx rz
    limits (-45.0 90.0)
           (-70.0 20.0)
  end
  begin
     id 5 
     name ltoes
     direction 1.5356e-011 -4.21928e-011 1   
     length 1.14243   
     axis -90 7.62852e-016 20   XYZ
    dof rx
    limits (-90.0 20.0)
  end
  begin
     id 6 
     name rhipjoint
     direction -0.573937 -0.753736 0.320122   
     length 2.44889  
     axis 0 0 0  XYZ 
  end
  begin
     id 7 
     name rfemur
     direction -0.34202 -0.939693 0   
     length 7.50166   
     axis 0 0 -20   XYZ
    dof rx ry rz
    limits (-160.0 20.0)
           (-70.0 70.0)
           (-70.0 60.0)
  end
  begin
     id 8 
     name rtibia
     direction -0.34202 -0.939693 0   
     length 7.54266   
     axis 0 0 -20   XYZ
    dof rx
    limits (-10.0 170.0)
 end
 begin
     id 9 
     name rfoot
     direction -0.114017 -0.31326 0.942798   
     length 2.34212  
     axis -90 -7.62852e-016 -20   XYZ
    dof rx rz
    limits (-45.0 90.0)
           (-20.0 70.0)
  end
  begin
     id 10 
     name rtoes
     direction -1.53557e-011 -4.21867e-011 1   
     length 1.16246   
     axis -90 -7.62852e-016 -20   XYZ
    dof rx
    limits (-90.0 20.0)
  end
  begin
     id 11 
     name lowerback
     direction -0.0228371 0.999155 -0.034167   
     length 2.0537   
     axis 0 0 0   XYZ
    dof rx ry rz
    limits (-20.0 45.0)
           (-30.0 30.0)
           (-30.0 30.0)
  end
  begin
     id 12 
     name upperback
     direction 0.0198981 0.999794 0.00389455   
     length 2.05302   
     axis 0 0 0   XYZ
    dof rx ry rz
    limits (-20.0 45.0)
           (-30.0 30.0)
           (-30.0 30.0)
  end
  begin
     id 13 
     name thorax
     direction 0.0304566 0.99935 0.0192987   
     length 2.05315   
     axis 0 0 0   XYZ
    dof rx ry rz
    limits (-20.0 45.0)
           (-30.0 30.0)
           (-30.0 30.0)
  end
  begin
     id 14 
     name lowerneck
     direction -0.0196762 0.99417 0.106017   
     length 1.82056   
     axis 0 0 0   XYZ
    dof rx ry rz
    limits (-20.0 45.0)
           (-30.0 30.0)
           (-30.0 30.0)
  end
  begin
     id 15 
     name upperneck
     direction 0.00517787 0.9802 -0.197944   
     length 1.83835   
     axis 0 0 0   XYZ
    dof rx ry rz
    limits (-20.0 45.0)
           (-30.0 30.0)
           (-30.0 30.0)
  end
  begin
     id 16
     name head
     direction 0.00211419 0.996945 -0.078081  
     length 1.85629  
     axis 0 0 0   XYZ
    dof rx ry rz
    limits (-20.0 45.0)
           (-30.0 30.0)
           (-30.0 30.0)
  end
  begin
     id 17 
     name lclavicle
     direction 0.930001 0.365811 -0.0357824  
     length 3.81961  
     axis 0 0 0   XYZ
    dof ry rz
    limits (-20.0 10.0)
           (0.0 20.0)
  end
  begin
     id 18 
     name lhumerus
     direction 1 -4.48968e-011 -3.06644e-027   
     length 5.14507   
     axis 180 -30 -90   XYZ
    dof rx ry rz
    limits (-60.0 90.0)
           (-90.0 90.0)
           (-90.0 90.0)
  end
  begin
     id 19
     name lradius
     direction 1 -4.48965e-011 9.06925e-028   
     length 3.50646   
     axis 180 -30 -90   XYZ
    dof rx
    limits (-10.0 170.0)
  end
  begin
     id 20
     name lwrist
     direction 1 -4.48957e-011 1.03922e-027   
     length 1.75323   
     axis -2.56395e-016 90 90   XYZ
    dof ry
    limits (-180.0 0.0)
 end
  begin
     id 21 
     name lhand
     direction 1 -4.48967e-011 2.08017e-027   
     length 0.629969   
     axis -1.32723e-015 90 90   XYZ
    dof rx rz
    limits (-90.0 90.0)
           (-45.0 45.0)
  end
  begin
     id 22 
     name lfingers
     direction 1 -4.49089e-011 4.20095e-027   
     length 0.507897   
     axis -2.6545e-015 90 90   XYZ
    dof rx
    limits (0.0 90.0)
  end
  begin
     id 23
     name lthumb
     direction 0.707107 -6.35001e-011 0.707107   
     length 0.729241   
     axis -90 45 5.05613e-014   XYZ
    dof rx rz
    limits (-45.0 45.0)
           (-45.0 45.0)
  end
  begin
     id 24 
     name rclavicle
     direction -0.881882 0.464123 -0.0829113   
     length 3.47515  
     axis 0 0 0   XYZ 
    dof ry rz
    limits (-10.0 20.0)
           (-20.0 0.0)
  end
  begin
     id 25 
     name rhumerus
     direction -1 -4.48961e-011 -1.55672e-027  
     length 5.232   
     axis 180 30 90   XYZ
    dof rx ry rz
    limits (-90.0 60.0)
           (-90.0 90.0)
           (-90.0 90.0)
  end
  begin
     id 26 
     name rradius
     direction -1 -4.48963e-011 6.18178e-029   
     length 3.65641   
     axis 180 30 90   XYZ
    dof rx
    limits (-10.0 170.0)
  end
  begin
     id 27 
     name rwrist
     direction -1 -4.48982e-011 1.04136e-027   
     length 1.8282   
     axis -2.56395e-016 -90 -90   XYZ
    dof ry
    limits (-180.0 0.0)
  end
  begin
     id 28
     name rhand
     direction -1 -4.48929e-011 2.07378e-027   
     length 0.656807   
     axis -1.32723e-015 -90 -90   XYZ
    dof rx rz
    limits (-90.0 90.0)
           (-45.0 45.0)
  end
  begin
     id 29
     name rfingers
     direction -1 -4.489e-011 4.13816e-027   
     length 0.529535   
     axis -2.6545e-015 -90 -90   XYZ
    dof rx
    limits (0.0 90.0)
  end
  begin
     id 30
     name rthumb
     direction -0.707107 -6.34843e-011 0.707107   
     length 0.760309   
     axis -90 -45 -5.05613e-014   XYZ
    dof rx rz
    limits (-45.0 45.0)
           (-45.0 45.0)
  end
:hierarchy
  begin
    root lhipjoint rhipjoint lowerback
    lhipjoint lfemur
    lfemur ltibia
    ltibia lfoot
    lfoot ltoes
    rhipjoint rfemur
    rfemur rtibia
    rtibia rfoot
    rfoot rtoes
    lowerback upperback
    upperback thorax
    thorax lowerneck lclavicle rclavicle
    lowerneck upperneck
    upperneck head
    lclavicle lhumerus
    lhumerus lradius
    lradius lwrist
    lwrist lhand lthumb
    lhand lfingers
    rclavicle rhumerus
    rhumerus rradius
    rradius rwrist
    rwrist rhand rthumb
    rhand rfingers
  end

#!OML:ASF H:\ManfredETheater\Project 1\Capture day 1\Session 1\subject.ASF
:FULLY-SPECIFIED
:DEGREES
1
root 7.52705 16.7514 -36.5378 21.6904 4.48784 6.93238
lowerback 18.5168 -1.78305 -1.84214
upperback 0.715567 -2.56445 1.61179
thorax -9.46187 -1.09194 3.47555
lowerneck -17.4965 -2.22069 -4.5137
upperneck 0.754848 -1.98939 -0.522576
head 3.39677 -1.0519 0.467924
rclavicle -3.61788e-014 2.46493e-014
rhumerus -57.6203 -4.46804 -79.952
rradius 77.8331
rwrist -15.6756
rhand -32.9235 2.8591
rfingers 7.12502
rthumb -6.14032 -27.0319
lclavicle -3.61788e-014 2.46493e-014
lhumerus -38.9742 -3.69167 93.3805
lradius 91.1841
lwrist 15.1371
lhand -23.7397 -7.43039
lfingers 7.12502
lthumb 2.72879 22.5319
rfemur -44.9074 -6.89796 17.5316
rtibia 63.8831
rfoot -24.6383 -14.6144
rtoes -41.0527
lfemur -25.7456 -3.13588 -26.5374
ltibia 82.0528
lfoot 4.90055 -11.1898
ltoes -11.9966
2
root 7.49748 16.7283 -36.0547 21.1212 5.38365 5.86087
lowerback 18.9943 -1.78905 -0.713774
upperback 0.67131 -2.30134 1.91332
thorax -9.82786 -1.00088 3.11858
lowerneck -17.4334 -2.40015 -4.5114
upperneck 1.31826 -2.21214 -0.649456
head 3.58952 -1.17764 0.403889
rclavicle -3.77691e-014 3.97569e-015
rhumerus -55.6827 -4.01573 -81.0757
rradius 79.2014
rwrist -14.2973
rhand -33.033 2.71248
rfingers 7.12502
rthumb -6.24607 -27.1754
lclavicle -3.77691e-014 3.97569e-015
lhumerus -39.9861 -3.27499 92.5663
lradius 86.474
lwrist 11.0405
lhand -24.5441 -7.35574
lfingers 7.12502
lthumb 1.95188 22.6151
rfemur -41.4193 -5.89479 18.611
rtibia 62.5892
rfoot -25.9579 -15.8845
rtoes -42.8858
lfemur -29.2514 -2.18107 -24.238
ltibia 86.139
lfoot 2.69335 -10.6451
ltoes -9.29193
3
root 7.47498 16.6924 -35.5713 20.7402 6.21719 4.61382
lowerback 19.1634 -1.86042 0.617638
upperback 0.534083 -2.06682 2.2411
thorax -10.1242 -0.938002 2.66961
lowerneck -17.064 -2.56017 -4.53785
upperneck 1.63569 -2.4279 -0.735279
head 3.63571 -1.29351 0.362619
rclavicle -2.3059e-014 4.77083e-015
rhumerus -54.1278 -3.27227 -82.0511
rradius 80.9378
rwrist -12.8415
rhand -32.4736 4.07775
rfingers 7.12502
rthumb -5.70604 -25.8254
lclavicle -2.3059e-014 4.77083e-015
lhumerus -41.5718 -3.02412 91.8132
lradius 82.9916
lwrist 8.78779
lhand -24.6476 -8.13979
lfingers 7.12502
lthumb 1.85189 21.8319
rfemur -38.2418 -5.05761 20.1005
rtibia 61.2915
rfoot -25.6128 -17.969
rtoes -45.7621
lfemur -33.239 -0.929354 -21.9245
ltibia 89.5581
lfoot 0.82278 -9.78097
ltoes -8.30456
4
root 7.46499 16.6584 -35.0754 20.3841 6.96359 3.397
lowerback 19.1548 -1.96194 2.02366
upperback 0.460134 -1.86259 2.49655
thorax -10.2486 -0.901224 2.09702
lowerneck -16.9596 -2.63052 -4.55299
upperneck 2.03879 -2.51677 -0.719712
head 3.76327 -1.34314 0.361559
rclavicle -1.07344e-014 6.36111e-015
rhumerus -52.7358 -2.41935 -83.1142
rradius 83.1637
rwrist -10.7243
rhand -32.2137 4.79507
rfingers 7.12502
rthumb -5.45509 -25.1147
lclavicle -1.07344e-014 6.36111e-015
lhumerus -43.7056 -3.05863 91.192
lradius 81.3954
lwrist 9.31956
lhand -24.308 -9.08311
lfingers 7.12502
lthumb 2.17992 20.8855
rfemur -35.1374 -4.6304 21.7096
rtibia 59.9688
rfoot -26.8335 -18.4564
rtoes -44.4608
lfemur -37.2863 0.421661 -19.8617
ltibia 92.5054
lfoot -1.26198 -8.52306
ltoes -7.8823
5
root 7.46213 16.68 -34.5367 20.5516 6.94947 3.12528
lowerback 18.5621 -1.89678 2.0815
upperback 0.360117 -1.79455 2.42126
thorax -10.0327 -0.877003 1.94191
lowerneck -16.9575 -2.63778 -4.36315
upperneck 2.2219 -2.57376 -0.556755
head 3.82969 -1.36328 0.37648
rclavicle 9.54166e-015 1.35174e-014
rhumerus -51.7833 -0.78725 -84.505
rradius 86.1781
rwrist -10.4515
rhand -32.1602 5.26582
rfingers 7.12502
rthumb -5.40341 -24.6453
lclavicle 9.54166e-015 1.35174e-014
lhumerus -47.0907 -3.34461 91.1608
lradius 84.255
lwrist 13.4165
lhand -23.6848 -8.98604
lfingers 7.12502
lthumb 2.78176 20.9756
rfemur -32.6533 -4.58692 22.1446
rtibia 58.6466
rfoot -26.7429 -18.4496
rtoes -45.0161
lfemur -41.3047 1.85545 -19.3431
ltibia 94.0209
lfoot -3.40802 -6.5889
ltoes -8.78019
6
root 7.45301 16.6537 -34.0258 20.3706 7.34716 2.50549
lowerback 18.3372 -1.89422 2.66685
upperback 0.302788 -1.66838 2.48502
thorax -9.98816 -0.844497 1.63898
lowerneck -16.9935 -2.74772 -4.34811
upperneck 2.90108 -2.72679 -0.364244
head 3.61516 -1.43476 0.364028
rclavicle -3.18055e-015 1.82882e-014
rhumerus -50.6922 0.540351 -85.5069
rradius 88.8049
rwrist -9.70875
rhand -31.7636 5.75679
rfingers 7.12502
rthumb -5.0205 -24.1637
lclavicle -3.18055e-015 1.82882e-014
lhumerus -49.6579 -3.53424 90.8084
lradius 84.6948
lwrist 14.7672
lhand -23.1876 -9.2357
lfingers 7.12502
lthumb 3.26188 20.7191
rfemur -29.7948 -4.32614 23.017
rtibia 57.2889
rfoot -26.75 -18.7925
rtoes -45.6334
lfemur -45.2302 3.08509 -18.336
ltibia 95.558
lfoot -4.61493 -5.2671
ltoes -7.58417
7
root 7.44609 16.6346 -33.5044 20.2069 7.65102 2.04423
lowerback 18.0385 -1.85367 3.06352
upperback 0.270164 -1.54554 2.48639
thorax -9.86843 -0.806113 1.37296
lowerneck -16.8811 -2.86816 -4.28217
upperneck 3.10951 -2.91676 -0.194743
head 3.66756 -1.52086 0.390568
rclavicle 1.03368e-014 1.51076e-014
rhumerus -49.8061 1.98915 -86.4054
rradius 91.6298
rwrist -9.25064
rhand -31.3274 6.18677
rfingers 7.12502
rthumb -4.59928 -23.7433
lclavicle 1.03368e-014 1.51076e-014
lhumerus -52.3413 -3.82801 90.563
lradius 85.8756
lwrist 16.4679
lhand -22.5431 -9.38685
lfingers 7.12502
lthumb 3.88428 20.5575
rfemur -26.9449 -4.16035 23.6867
rtibia 55.8889
rfoot -26.4382 -18.81
rtoes -46.2606
lfemur -49.0023 4.21172 -17.6732
ltibia 96.3567
lfoot -5.45931 -4.0327
ltoes -6.10093
8
root 7.44125 16.6242 -32.9722 20.0304 7.8742 1.72699
lowerback 17.6993 -1.7637 3.29344
upperback 0.26932 -1.40325 2.43258
thorax -9.68545 -0.751312 1.13492
lowerneck -16.7697 -3.0319 -4.243
upperneck 3.30003 -3.16393 0.0296206
head 3.71708 -1.63202 0.433716
rclavicle -1.47101e-014 7.95139e-016
rhumerus -49.1257 3.49053 -87.1553
rradius 94.601
rwrist -9.0416
rhand -30.8798 6.55122
rfingers 7.12502
rthumb -4.16703 -23.3878
lclavicle -1.47101e-014 7.95139e-016
lhumerus -55.0177 -4.21017 90.4104
lradius 87.5236
lwrist 18.1428
lhand -21.8246 -9.39371
lfingers 7.12502
lthumb 4.57814 20.5368
rfemur -24.0705 -4.04071 24.1424
rtibia 54.4389
rfoot -25.8 -18.4298
rtoes -46.8887
lfemur -52.4899 5.17025 -17.29
ltibia 96.5182
lfoot -6.18319 -3.00475
ltoes -4.48477
9
root 7.4386 16.621 -32.4303 19.8278 8.0289 1.5075
lowerback 17.3414 -1.61672 3.40872
upperback 0.295053 -1.21616 2.3398
thorax -9.45848 -0.66988 0.908471
lowerneck -16.646 -3.2529 -4.24621
upperneck 3.49305 -3.48362 0.299241
head 3.76898 -1.77689 0.491663
rclavicle 3.69739e-014 -1.82882e-014
rhumerus -48.6468 4.96648 -87.7125
rradius 97.6498
rwrist -8.99006
rhand -30.3949 6.92671
rfingers 7.12502
rthumb -3.69877 -23.0209
lclavicle 3.69739e-014 -1.82882e-014
lhumerus -57.5974 -4.66521 90.3323
lradius 89.3779
lwrist 19.4998
lhand -21.0731 -9.29474
lfingers 7.12502
lthumb 5.3038 20.6189
rfemur -21.1886 -3.90952 24.4199
rtibia 52.9664
rfoot -24.7381 -17.6499
rtoes -47.5927
lfemur -55.6498 5.93215 -17.0793
ltibia 95.9551
lfoot -6.73206 -2.29274
ltoes -3.01127
10
root 7.43856 16.6225 -31.8801 19.5695 8.13543 1.33824
lowerback 16.9929 -1.41534 3.46544
upperback 0.351762 -0.971716 2.22739
thorax -9.19963 -0.557679 0.6818
lowerneck -16.5093 -3.52982 -4.30424
upperneck 3.70915 -3.87089 0.602794
head 3.83014 -1.95407 0.562977
rclavicle -3.97569e-015 -1.82882e-014
rhumerus -48.349 6.34898 -88.0529
rradius 100.702
rwrist -8.94242
rhand -29.8905 7.36677
rfingers 7.12502
rthumb -3.21175 -22.5888
lclavicle -3.97569e-015 -1.82882e-014
lhumerus -60.0133 -5.16583 90.3042
lradius 91.2355
lwrist 20.4218
lhand -20.3054 -9.17057
lfingers 7.12502
lthumb 6.04501 20.7232
rfemur -18.3034 -3.73036 24.5699
rtibia 51.515
rfoot -23.2601 -16.3965
rtoes -48.1896
lfemur -58.4183 6.47705 -16.9189
ltibia 94.7106
lfoot -7.21476 -1.9742
ltoes -2.01456
11
root 7.44221 16.6262 -31.3229 19.2709 8.17753 1.17698
lowerback 16.6416 -1.15557 3.50287
upperback 0.430961 -0.655361 2.10885
thorax -8.91154 -0.409028 0.445098
lowerneck -16.3663 -3.8572 -4.42066
upperneck 3.97174 -4.31704 0.928903
head 3.90937 -2.16013 0.644866
rclavicle -3.57812e-015 8.74653e-015
rhumerus -48.2003 7.5747 -88.1735
rradius 103.671
rwrist -8.75451
rhand -29.4114 7.89422
rfingers 7.12502
rthumb -2.74906 -22.0678
lclavicle -3.57812e-015 8.74653e-015
lhumerus -62.2433 -5.67629 90.3079
lradius 92.9848
lwrist 20.9004
lhand -19.5607 -9.05196
lfingers 7.12502
lthumb 6.76393 20.82
rfemur -15.4908 -3.45356 24.6301
rtibia 50.1421
rfoot -21.3234 -14.6019
rtoes -48.5088
lfemur -60.7889 6.82369 -16.7149
ltibia 92.8392
lfoot -7.69913 -2.08946
ltoes -1.85941
12
root 7.44954 16.631 -30.7593 18.925 8.1728 1.02356
lowerback 16.2996 -0.852258 3.52139
upperback 0.532795 -0.284685 1.99401
thorax -8.60096 -0.23185 0.214764
lowerneck -16.2288 -4.21888 -4.58151
upperneck 4.29558 -4.80169 1.25557
head 4.01259 -2.38598 0.729347
rclavicle 7.15625e-015 2.54444e-014
rhumerus -48.1584 8.60364 -88.0901
rradius 106.463
rwrist -8.37561
rhand -28.954 8.57807
rfingers 7.12502
rthumb -2.30727 -21.3892
lclavicle 7.15625e-015 2.54444e-014
lhumerus -64.2862 -6.14475 90.3256
lradius 94.5763
lwrist 21.0218
lhand -18.8573 -9.00024
lfingers 7.12502
lthumb 7.44291 20.8488
rfemur -12.7778 -3.07794 24.6215
rtibia 48.8987
rfoot -18.8127 -12.3254
rtoes -48.3349
lfemur -62.7228 6.9571 -16.3985
ltibia 90.3888
lfoot -8.20206 -2.63709
ltoes -2.65131
13
root 7.46019 16.6362 -30.1899 18.5411 8.13084 0.896442
lowerback 15.9634 -0.523275 3.49854
upperback 0.651954 0.113085 1.88505
thorax -8.27267 -0.0382347 0.013285
lowerneck -16.0842 -4.59089 -4.77469
upperneck 4.67119 -5.29601 1.57449
head 4.13417 -2.61753 0.814375
rclavicle -2.78299e-015 -2.22639e-014
rhumerus -48.1817 9.42847 -87.8441
rradius 108.991
rwrist -7.79388
rhand -28.603 9.33439
rfingers 7.12502
rthumb -1.96832 -20.6363
lclavicle -2.78299e-015 -2.22639e-014
lhumerus -66.1593 -6.51251 90.3387
lradius 96.0107
lwrist 20.9042
lhand -18.2124 -9.02191
lfingers 7.12502
lthumb 8.06531 20.8042
rfemur -10.2176 -2.61489 24.55
rtibia 47.8387
rfoot -15.6229 -9.77323
rtoes -47.5551
lfemur -64.2019 6.86579 -15.9341
ltibia 87.4023
lfoot -8.68951 -3.57743
ltoes -4.45161
